# xmcd
#
# Track frame offsets: 
#        150
#        19033
#        39806
#        56909
#        78875
#        98852
#        116606
#        132161
#        153265
#        171226
#        181292
#        201367
#
# Disc length: 3022 seconds
#
# Revision: 0
# Processed by: cddbd v1.5.2PL0 Copyright (c) Steve Scherf et al.
# Submitted via: ExactAudioCopy v0.99pb4
#
DISCID=950bcc0c
DTITLE=湯旭 - 島歌
DYEAR=2009
DGENRE=Pop
TTITLE0=島歌
TTITLE1=媽，謝謝你
TTITLE2=好時節
TTITLE3=便宜的幸福
TTITLE4=向日葵之歌
TTITLE5=燕子
TTITLE6=我們的未來
TTITLE7=我的路
TTITLE8=午後
TTITLE9=擁擠的遊戲
TTITLE10=做音樂就是和你在一起
TTITLE11=水草
EXTD=
EXTT0=
EXTT1=
EXTT2=
EXTT3=
EXTT4=
EXTT5=
EXTT6=
EXTT7=
EXTT8=
EXTT9=
EXTT10=
EXTT11=
PLAYORDER=
